<?xml version="1.0" encoding="UTF-8"?>
<svg width="19px" height="16px" viewBox="0 0 19 16" version="1.1" xmlns="http://www.w3.org/2000/svg" xmlns:xlink="http://www.w3.org/1999/xlink">
    <!-- Generator: Sketch 52.5 (67469) - http://www.bohemiancoding.com/sketch -->
    <title>ic_format_list_bulleted</title>
    <desc>Created with Sketch.</desc>
    <defs>
        <path d="M4,10.5 C3.17,10.5 2.5,11.17 2.5,12 C2.5,12.83 3.17,13.5 4,13.5 C4.83,13.5 5.5,12.83 5.5,12 C5.5,11.17 4.83,10.5 4,10.5 L4,10.5 Z M4,4.5 C3.17,4.5 2.5,5.17 2.5,6 C2.5,6.83 3.17,7.5 4,7.5 C4.83,7.5 5.5,6.83 5.5,6 C5.5,5.17 4.83,4.5 4,4.5 L4,4.5 Z M4,16.67 C3.26,16.67 2.67,17.27 2.67,18 C2.67,18.73 3.27,19.33 4,19.33 C4.73,19.33 5.33,18.73 5.33,18 C5.33,17.27 4.74,16.67 4,16.67 L4,16.67 Z M7,19 L21,19 L21,17 L7,17 L7,19 L7,19 Z M7,13 L21,13 L21,11 L7,11 L7,13 L7,13 Z M7,5 L7,7 L21,7 L21,5 L7,5 L7,5 Z" id="path-1"></path>
    </defs>
    <g id="host-info" stroke="none" stroke-width="1" fill="none" fill-rule="evenodd">
        <g id="Host-info-1" transform="translate(-114.000000, -1724.000000)">
            <g id="others" transform="translate(112.000000, 1517.000000)">
                <g id="ic_format_list_bulleted" transform="translate(0.000000, 203.000000)">
                    <mask id="mask-2" fill="white">
                        <use xlink:href="#path-1"></use>
                    </mask>
                    <g id="Mask"></g>
                    <g id="Colors/Gray" mask="url(#mask-2)" fill="#BEBEBE" fill-rule="evenodd">
                        <g transform="translate(-13.000000, -13.000000)" id="Colors/Your_color_2">
                            <path d="M0,0 L50,0 L50,50 L0,50 L0,0 Z"></path>
                        </g>
                    </g>
                </g>
            </g>
        </g>
    </g>
</svg>