<?xml version="1.0" encoding="UTF-8"?>
<svg width="22px" height="14px" viewBox="0 0 22 14" version="1.1" xmlns="http://www.w3.org/2000/svg" xmlns:xlink="http://www.w3.org/1999/xlink">
    <!-- Generator: Sketch 52.5 (67469) - http://www.bohemiancoding.com/sketch -->
    <title>ic_group</title>
    <desc>Created with Sketch.</desc>
    <defs>
        <path d="M16,11 C17.66,11 18.99,9.66 18.99,8 C18.99,6.34 17.66,5 16,5 C14.34,5 13,6.34 13,8 C13,9.66 14.34,11 16,11 L16,11 Z M8,11 C9.66,11 10.99,9.66 10.99,8 C10.99,6.34 9.66,5 8,5 C6.34,5 5,6.34 5,8 C5,9.66 6.34,11 8,11 L8,11 Z M8,13 C5.67,13 1,14.17 1,16.5 L1,19 L15,19 L15,16.5 C15,14.17 10.33,13 8,13 L8,13 Z M16,13 C15.71,13 15.38,13.02 15.03,13.05 C16.19,13.89 17,15.02 17,16.5 L17,19 L23,19 L23,16.5 C23,14.17 18.33,13 16,13 L16,13 Z" id="path-1"></path>
    </defs>
    <g id="host-info" stroke="none" stroke-width="1" fill="none" fill-rule="evenodd">
        <g id="Host-info-1" transform="translate(-113.000000, -991.000000)">
            <g id="members" transform="translate(112.000000, 928.000000)">
                <g id="ic_group" transform="translate(0.000000, 58.000000)">
                    <mask id="mask-2" fill="white">
                        <use xlink:href="#path-1"></use>
                    </mask>
                    <g id="Mask"></g>
                    <g id="Colors/Gray" mask="url(#mask-2)" fill="#BEBEBE" fill-rule="evenodd">
                        <g transform="translate(-13.000000, -13.000000)" id="Colors/Your_color_2">
                            <path d="M0,0 L50,0 L50,50 L0,50 L0,0 Z"></path>
                        </g>
                    </g>
                </g>
            </g>
        </g>
    </g>
</svg>